<svg xmlns="http://www.w3.org/2000/svg" xmlns:xlink="http://www.w3.org/1999/xlink" viewBox="0 0 437 359.94"><defs><style>.cls-1{fill:url(#radial-gradient);}.cls-2{fill:url(#radial-gradient-2);}.cls-3{fill:url(#radial-gradient-3);}.cls-4{fill:url(#radial-gradient-4);}</style><radialGradient id="radial-gradient" cx="109.26" cy="63.46" r="89.34" gradientUnits="userSpaceOnUse"><stop offset="0" stop-color="#8dc63f"/><stop offset="1" stop-color="#39b54a"/></radialGradient><radialGradient id="radial-gradient-2" cx="120.91" cy="233.96" r="112.69" xlink:href="#radial-gradient"/><radialGradient id="radial-gradient-3" cx="327.76" cy="63.46" r="89.33" xlink:href="#radial-gradient"/><radialGradient id="radial-gradient-4" cx="316.11" cy="233.96" r="112.68" xlink:href="#radial-gradient"/></defs><g id="Layer_2" data-name="Layer 2"><g id="Layer_1-2" data-name="Layer 1"><path class="cls-1" d="M218.52,126.92c-59-39-87.05-28-111.72-24.14-33,5.17-49.6,25.59-73.12,9.59C14.3,99.23-2.57,66.28.32,43.67c1.45-11.24,7.49-17.73,12.4-21.86C46.25-6,141.39-16.09,189.5,46.4,211.54,75.05,211.82,103.36,218.52,126.92Z"/><path class="cls-2" d="M218.52,128.49c-63.57,47.2-67.37,89.65-75.93,123.17-11.45,44.76-1.28,79.32-27,97.84C94.4,364.79,56.79,363.42,38,344.45,28.64,335,25.74,323,24.5,314.07c-8.59-60.84,28.73-186.53,108-204.14C168.76,101.87,194.18,120.84,218.52,128.49Z"/><path class="cls-3" d="M218.52,126.92c6.66-23.56,6.94-51.87,29-80.52C295.61-16.09,390.75-6,424.28,21.81c4.91,4.13,11,10.62,12.4,21.86,2.89,22.61-14,55.56-33.36,68.7-23.52,16-40.09-4.42-73.12-9.59C305.53,98.94,277.5,87.94,218.52,126.92Z"/><path class="cls-4" d="M412.5,314.07c-1.24,9-4.14,21-13.48,30.38-18.81,19-56.42,20.34-77.62,5.05-25.71-18.52-15.54-53.08-27-97.84-8.56-33.52-12.36-76-75.89-123.17,24.3-7.65,49.72-26.62,86-18.56C383.81,127.54,421.09,253.23,412.5,314.07Z"/></g></g></svg>